<svg width="367" height="70" viewBox="0 0 367 70" fill="none" xmlns="http://www.w3.org/2000/svg">
<path d="M361.788 35.4349C365.359 75.5115 322.511 75.5115 326.081 35.4349C329.652 -4.64169 286.804 -4.64169 290.374 35.4349C293.945 75.5115 251.097 75.5115 254.667 35.4349C258.238 -4.64169 215.39 -4.6417 218.96 35.4349C222.531 75.5115 179.683 75.5115 183.253 35.4349C186.824 -4.6417 143.976 -4.6417 147.546 35.4349C151.117 75.5115 108.269 75.5115 111.839 35.4349C115.41 -4.6417 72.5616 -4.64171 76.1323 35.4349C79.703 75.5115 36.8546 75.5115 40.4253 35.4349C43.996 -4.64171 1.14755 -4.64171 4.71825 35.4349" stroke="#F06F46" strokeWidth="8.90591"/>
</svg>
