<svg width="227" height="32" viewBox="0 0 227 32" fill="none" xmlns="http://www.w3.org/2000/svg">
<path fillRule="evenodd" clipRule="evenodd" d="M0.69751 7.33898C0.69751 6.23441 1.82256 5.33898 3.21039 5.33898H223.687C225.075 5.33898 226.2 6.23441 226.2 7.33898C226.2 8.44355 225.075 9.33898 223.687 9.33898H3.21039C1.82256 9.33898 0.69751 8.44355 0.69751 7.33898Z" fill="#FFFCFA" fill-opacity="0.1"/>
<path fillRule="evenodd" clipRule="evenodd" d="M0.69751 7.33898C0.69751 6.23441 1.82256 5.33898 3.21039 5.33898H18.6873C20.0751 5.33898 21.2001 6.23441 21.2001 7.33898C21.2001 8.44355 20.0751 9.33898 18.6873 9.33898H3.21039C1.82256 9.33898 0.69751 8.44355 0.69751 7.33898Z" fill="#FFFCFA"/>
<path d="M3.57751 23.4774C5.16751 23.4774 5.72751 21.8174 5.72751 19.9074C5.72751 17.9974 5.15751 16.3074 3.50751 16.3074C1.69751 16.3074 1.34751 18.2374 1.34751 19.8974C1.34751 21.5574 1.71751 23.4774 3.57751 23.4774ZM3.55751 22.8174C2.28751 22.8174 2.05751 21.3674 2.05751 19.8974C2.05751 18.3974 2.28751 16.9674 3.50751 16.9674C4.67751 16.9674 4.98751 18.2874 4.98751 19.8974C4.98751 21.4774 4.68751 22.8174 3.55751 22.8174ZM7.93134 22.7274C9.70134 21.6174 11.2813 20.1974 11.2813 18.4174C11.2813 17.0774 10.4313 16.3074 9.19134 16.3074C7.75134 16.3074 6.96134 17.3474 6.96134 18.7174L7.64134 18.7674C7.65134 17.7374 8.13134 16.9674 9.19134 16.9674C10.0913 16.9674 10.5813 17.5274 10.5813 18.4074C10.5813 20.2574 8.41134 21.7174 6.78134 22.7374V23.3774H11.6013V22.7274H7.93134ZM13.3152 19.7674H14.2052V18.6674H13.3152V19.7674ZM13.3152 23.3774H14.2052V22.2774H13.3152V23.3774ZM18.2529 23.4774C19.6129 23.4774 20.6929 22.7174 20.6929 21.3974C20.6929 20.3774 20.0329 19.7974 19.2729 19.6574C19.7929 19.4874 20.3229 18.9274 20.3229 18.0874C20.3229 16.9474 19.3629 16.3074 18.2629 16.3074C17.0529 16.3074 16.1429 17.0474 16.1429 18.2574L16.8129 18.3074C16.8229 17.4474 17.4229 16.9674 18.2929 16.9674C19.0329 16.9674 19.6329 17.3474 19.6329 18.1674C19.6329 19.0374 18.9229 19.4174 17.9129 19.4174V19.9974C18.8129 19.9974 20.0029 20.1574 20.0029 21.3374C20.0029 22.2874 19.2529 22.8174 18.2629 22.8174C17.2129 22.8174 16.4829 22.2474 16.4829 21.2574L15.8029 21.2974C15.8029 22.7074 16.8629 23.4774 18.2529 23.4774ZM24.0267 23.4774C25.6167 23.4774 26.1767 21.8174 26.1767 19.9074C26.1767 17.9974 25.6067 16.3074 23.9567 16.3074C22.1467 16.3074 21.7967 18.2374 21.7967 19.8974C21.7967 21.5574 22.1667 23.4774 24.0267 23.4774ZM24.0067 22.8174C22.7367 22.8174 22.5067 21.3674 22.5067 19.8974C22.5067 18.3974 22.7367 16.9674 23.9567 16.9674C25.1267 16.9674 25.4367 18.2874 25.4367 19.8974C25.4367 21.4774 25.1367 22.8174 24.0067 22.8174Z" fill="#FFFCFA"/>
<path d="M203.609 21.0574V16.4074H202.969L199.429 21.2674V21.7174H202.919V23.3774H203.609V21.7174H204.739V21.0574H203.609ZM200.349 21.0574L202.919 17.4474V21.0574H200.349ZM207.893 18.7174C207.383 18.7174 206.853 18.8874 206.383 19.3274L206.783 17.0674H209.823V16.4074H206.213L205.583 20.0074L206.283 20.1974C206.633 19.6874 207.143 19.3574 207.813 19.3574C208.823 19.3574 209.423 20.0974 209.423 21.0174C209.423 21.9674 208.763 22.7974 207.733 22.7974C206.823 22.7974 206.193 22.1774 206.043 21.3374L205.363 21.4474C205.563 22.5674 206.473 23.4574 207.733 23.4574C209.123 23.4574 210.153 22.3374 210.153 21.0174C210.153 19.7374 209.203 18.7174 207.893 18.7174ZM211.867 19.7674H212.757V18.6674H211.867V19.7674ZM211.867 23.3774H212.757V22.2774H211.867V23.3774ZM216.995 18.7174C216.485 18.7174 215.955 18.8874 215.485 19.3274L215.885 17.0674H218.925V16.4074H215.315L214.685 20.0074L215.385 20.1974C215.735 19.6874 216.245 19.3574 216.915 19.3574C217.925 19.3574 218.525 20.0974 218.525 21.0174C218.525 21.9674 217.865 22.7974 216.835 22.7974C215.925 22.7974 215.295 22.1774 215.145 21.3374L214.465 21.4474C214.665 22.5674 215.575 23.4574 216.835 23.4574C218.225 23.4574 219.255 22.3374 219.255 21.0174C219.255 19.7374 218.305 18.7174 216.995 18.7174ZM222.578 23.4774C224.168 23.4774 224.728 21.8174 224.728 19.9074C224.728 17.9974 224.158 16.3074 222.508 16.3074C220.698 16.3074 220.348 18.2374 220.348 19.8974C220.348 21.5574 220.718 23.4774 222.578 23.4774ZM222.558 22.8174C221.288 22.8174 221.058 21.3674 221.058 19.8974C221.058 18.3974 221.288 16.9674 222.508 16.9674C223.678 16.9674 223.988 18.2874 223.988 19.8974C223.988 21.4774 223.688 22.8174 222.558 22.8174Z" fill="#FFFCFA"/>
</svg>
