<svg width="181" height="53" viewBox="0 0 181 53" fill="none" xmlns="http://www.w3.org/2000/svg">
<path d="M3.47339 24.3774H13.4734C17.8917 24.3774 21.4734 27.9592 21.4734 32.3774V34.3774M3.47339 24.3774L9.47339 30.3774M3.47339 24.3774L9.47339 18.3774" stroke="#FFFCFA" stroke-linecap="round" stroke-linejoin="round"/>
<path fill-rule="evenodd" clip-rule="evenodd" d="M90.4733 47.1774C101.961 47.1774 111.273 37.865 111.273 26.3774C111.273 14.8899 101.961 5.57744 90.4733 5.57744C78.9858 5.57744 69.6733 14.8899 69.6733 26.3774C69.6733 37.865 78.9858 47.1774 90.4733 47.1774ZM89.3156 19.0141C88.5177 18.4822 87.4919 18.4326 86.6465 18.8851C85.8011 19.3375 85.2733 20.2186 85.2733 21.1774V31.5774C85.2733 32.5363 85.8011 33.4174 86.6465 33.8698C87.4919 34.3223 88.5177 34.2727 89.3156 33.7408L97.1156 28.5408C97.8389 28.0586 98.2733 27.2468 98.2733 26.3774C98.2733 25.5081 97.8389 24.6963 97.1156 24.2141L89.3156 19.0141Z" fill="#FFFCFA"/>
<path d="M160.791 20.6955C159.034 22.4528 159.034 25.3021 160.791 27.0594L168.473 34.7415L176.155 27.0594C177.913 25.3021 177.913 22.4528 176.155 20.6955C174.398 18.9381 171.549 18.9381 169.791 20.6955L168.473 22.0135L167.155 20.6955C165.398 18.9381 162.549 18.9381 160.791 20.6955Z" stroke="#FFFCFA" stroke-linecap="round" stroke-linejoin="round"/>
</svg>
