<svg width="45" height="156" viewBox="0 0 45 156" fill="none" xmlns="http://www.w3.org/2000/svg">
<mask id="path-1-inside-1_23:2617" fill="white">
<path fill-rule="evenodd" clip-rule="evenodd" d="M45 8.99966L36.5002 0.499878L22.4999 14.5001L8.49979 0.500006L0 8.99979L14.0001 22.9999L6.67874e-05 37L8.49985 45.4998L22.4999 31.4997L36.5001 45.4999L44.9999 37.0001L30.9997 22.9999L45 8.99966Z"/>
</mask>
<path d="M36.5002 0.499878L36.8537 0.146325L36.5002 -0.207229L36.1466 0.146325L36.5002 0.499878ZM45 8.99966L45.3535 9.35322L45.7071 8.99966L45.3535 8.64611L45 8.99966ZM22.4999 14.5001L22.1464 14.8537L22.4999 15.2073L22.8535 14.8537L22.4999 14.5001ZM8.49979 0.500006L8.85334 0.146453L8.49979 -0.2071L8.14623 0.146453L8.49979 0.500006ZM0 8.99979L-0.353553 8.64624L-0.707107 8.99979L-0.353553 9.35334L0 8.99979ZM14.0001 22.9999L14.3537 23.3535L14.7072 22.9999L14.3537 22.6464L14.0001 22.9999ZM6.67874e-05 37L-0.353487 36.6465L-0.70704 37L-0.353487 37.3536L6.67874e-05 37ZM8.49985 45.4998L8.1463 45.8533L8.49985 46.2069L8.8534 45.8533L8.49985 45.4998ZM22.4999 31.4997L22.8535 31.1462L22.4999 30.7926L22.1464 31.1462L22.4999 31.4997ZM36.5001 45.4999L36.1466 45.8535L36.5001 46.207L36.8537 45.8535L36.5001 45.4999ZM44.9999 37.0001L45.3535 37.3537L45.707 37.0001L45.3535 36.6466L44.9999 37.0001ZM30.9997 22.9999L30.6462 22.6464L30.2926 22.9999L30.6462 23.3535L30.9997 22.9999ZM36.1466 0.853431L44.6464 9.35322L45.3535 8.64611L36.8537 0.146325L36.1466 0.853431ZM22.8535 14.8537L36.8537 0.853431L36.1466 0.146325L22.1464 14.1466L22.8535 14.8537ZM8.14623 0.85356L22.1464 14.8537L22.8535 14.1466L8.85334 0.146453L8.14623 0.85356ZM0.353553 9.35334L8.85334 0.85356L8.14623 0.146453L-0.353553 8.64624L0.353553 9.35334ZM14.3537 22.6464L0.353553 8.64624L-0.353553 9.35334L13.6466 23.3535L14.3537 22.6464ZM0.35362 37.3536L14.3537 23.3535L13.6466 22.6464L-0.353487 36.6465L0.35362 37.3536ZM8.8534 45.1462L0.35362 36.6465L-0.353487 37.3536L8.1463 45.8533L8.8534 45.1462ZM22.1464 31.1462L8.1463 45.1462L8.8534 45.8533L22.8535 31.8533L22.1464 31.1462ZM36.8537 45.1464L22.8535 31.1462L22.1464 31.8533L36.1466 45.8535L36.8537 45.1464ZM44.6464 36.6466L36.1466 45.1464L36.8537 45.8535L45.3535 37.3537L44.6464 36.6466ZM30.6462 23.3535L44.6464 37.3537L45.3535 36.6466L31.3533 22.6464L30.6462 23.3535ZM44.6464 8.64611L30.6462 22.6464L31.3533 23.3535L45.3535 9.35322L44.6464 8.64611Z" fill="#171717" mask="url(#path-1-inside-1_23:2617)"/>
<path fill-rule="evenodd" clip-rule="evenodd" d="M45 63.9998L36.5002 55.5L22.4999 69.5003L8.49979 55.5001L0 63.9999L14.0001 78.0001L6.67874e-05 92.0001L8.49985 100.5L22.4999 86.4998L36.5001 100.5L44.9999 92.0003L30.9997 78.0001L45 63.9998Z" fill="#171717"/>
<mask id="path-4-inside-2_23:2617" fill="white">
<path fill-rule="evenodd" clip-rule="evenodd" d="M45 119L36.5002 110.5L22.4999 124.5L8.49979 110.5L0 119L14.0001 133L6.67874e-05 147L8.49985 155.5L22.4999 141.5L36.5001 155.5L44.9999 147L30.9997 133L45 119Z"/>
</mask>
<path d="M36.5002 110.5L36.8537 110.147L36.5002 109.793L36.1466 110.147L36.5002 110.5ZM45 119L45.3535 119.353L45.7071 119L45.3535 118.646L45 119ZM22.4999 124.5L22.1464 124.854L22.4999 125.207L22.8535 124.854L22.4999 124.5ZM8.49979 110.5L8.85334 110.147L8.49979 109.793L8.14623 110.147L8.49979 110.5ZM0 119L-0.353553 118.646L-0.707107 119L-0.353553 119.354L0 119ZM14.0001 133L14.3537 133.354L14.7072 133L14.3537 132.647L14.0001 133ZM6.67874e-05 147L-0.353487 146.647L-0.70704 147L-0.353487 147.354L6.67874e-05 147ZM8.49985 155.5L8.1463 155.854L8.49985 156.207L8.8534 155.854L8.49985 155.5ZM22.4999 141.5L22.8535 141.146L22.4999 140.793L22.1464 141.146L22.4999 141.5ZM36.5001 155.5L36.1466 155.854L36.5001 156.207L36.8537 155.854L36.5001 155.5ZM44.9999 147L45.3535 147.354L45.707 147L45.3535 146.647L44.9999 147ZM30.9997 133L30.6462 132.647L30.2926 133L30.6462 133.354L30.9997 133ZM36.1466 110.854L44.6464 119.353L45.3535 118.646L36.8537 110.147L36.1466 110.854ZM22.8535 124.854L36.8537 110.854L36.1466 110.147L22.1464 124.147L22.8535 124.854ZM8.14623 110.854L22.1464 124.854L22.8535 124.147L8.85334 110.147L8.14623 110.854ZM0.353553 119.354L8.85334 110.854L8.14623 110.147L-0.353553 118.646L0.353553 119.354ZM14.3537 132.647L0.353553 118.646L-0.353553 119.354L13.6466 133.354L14.3537 132.647ZM0.35362 147.354L14.3537 133.354L13.6466 132.647L-0.353487 146.647L0.35362 147.354ZM8.8534 155.146L0.35362 146.647L-0.353487 147.354L8.1463 155.854L8.8534 155.146ZM22.1464 141.146L8.1463 155.146L8.8534 155.854L22.8535 141.854L22.1464 141.146ZM36.8537 155.147L22.8535 141.146L22.1464 141.854L36.1466 155.854L36.8537 155.147ZM44.6464 146.647L36.1466 155.147L36.8537 155.854L45.3535 147.354L44.6464 146.647ZM30.6462 133.354L44.6464 147.354L45.3535 146.647L31.3533 132.647L30.6462 133.354ZM44.6464 118.646L30.6462 132.647L31.3533 133.354L45.3535 119.353L44.6464 118.646Z" fill="#171717" mask="url(#path-4-inside-2_23:2617)"/>
</svg>
