<svg width="53" height="53" viewBox="0 0 53 53" fill="none" xmlns="http://www.w3.org/2000/svg">
<path fillRule="evenodd" clipRule="evenodd" d="M26.4733 47.1774C37.9609 47.1774 47.2733 37.865 47.2733 26.3774C47.2733 14.8899 37.9609 5.57744 26.4733 5.57744C14.9858 5.57744 5.67334 14.8899 5.67334 26.3774C5.67334 37.865 14.9858 47.1774 26.4733 47.1774ZM25.3156 19.0141C24.5177 18.4822 23.4919 18.4326 22.6465 18.8851C21.8011 19.3375 21.2733 20.2186 21.2733 21.1774V31.5774C21.2733 32.5363 21.8011 33.4174 22.6465 33.8698C23.4919 34.3223 24.5177 34.2727 25.3156 33.7408L33.1156 28.5408C33.8389 28.0586 34.2733 27.2468 34.2733 26.3774C34.2733 25.5081 33.8389 24.6963 33.1156 24.2141L25.3156 19.0141Z" fill="#FFFCFA"/>
</svg>
